<svg xmlns="http://www.w3.org/2000/svg" viewBox="0 0 1140 350" width="1140" height="350" role="img" aria-labelledby="t d">
<title id="t">Simulação do Teorema Central do Limite</title>
<desc id="d">Três histogramas em porcentagem: a população exponencial é muito assimétrica, concentrada perto de zero; as médias de amostras de tamanho 2 ainda são assimétricas; as médias de amostras de tamanho 30 formam um sino aproximadamente simétrico em torno de 10.</desc>
<defs><linearGradient id="g" x1="0" y1="0" x2="1" y2="0"><stop offset="0" stop-color="#FF781F"/><stop offset=".5" stop-color="#FF4500"/><stop offset="1" stop-color="#E60000"/></linearGradient></defs>
<rect width="1140" height="350" rx="18" fill="#0D1117"/>
<rect width="1140" height="6" rx="3" fill="url(#g)"/>
<g font-family="Fira Code, Consolas, monospace">
<text x="570.0" y="40.0" font-size="16" fill="#F8FAFC" text-anchor="middle" font-weight="700">Teorema Central do Limite: população exponencial (média 10)</text>
<text x="210.0" y="76.0" font-size="13" fill="#CBD5E1" text-anchor="middle" font-weight="400">População (100 mil valores)</text>
<line x1="80" y1="300.0" x2="360" y2="300.0" stroke="#30363D"/>
<text x="72.0" y="304.0" font-size="11" fill="#CBD5E1" text-anchor="end" font-weight="400">0</text>
<line x1="80" y1="250.0" x2="360" y2="250.0" stroke="#30363D"/>
<text x="72.0" y="254.0" font-size="11" fill="#CBD5E1" text-anchor="end" font-weight="400">10</text>
<line x1="80" y1="200.0" x2="360" y2="200.0" stroke="#30363D"/>
<text x="72.0" y="204.0" font-size="11" fill="#CBD5E1" text-anchor="end" font-weight="400">20</text>
<line x1="80" y1="150.0" x2="360" y2="150.0" stroke="#30363D"/>
<text x="72.0" y="154.0" font-size="11" fill="#CBD5E1" text-anchor="end" font-weight="400">30</text>
<line x1="80" y1="100.0" x2="360" y2="100.0" stroke="#30363D"/>
<text x="72.0" y="104.0" font-size="11" fill="#CBD5E1" text-anchor="end" font-weight="400">40</text>
<line x1="80" y1="300" x2="360" y2="300" stroke="#CBD5E1"/>
<text x="42" y="200.0" font-size="12" fill="#CBD5E1" text-anchor="middle" transform="rotate(-90 42 200.0)">%</text>
<rect x="80.0" y="100.0" width="28.0" height="200.0" fill="#FF781F" stroke="#0D1117" stroke-width="2"/>
<text x="94.0" y="94.0" font-size="12" fill="#F8FAFC" text-anchor="middle" font-weight="700">40</text>
<rect x="108.0" y="180.0" width="28.0" height="120.0" fill="#FF781F" stroke="#0D1117" stroke-width="2"/>
<text x="122.0" y="174.0" font-size="12" fill="#F8FAFC" text-anchor="middle" font-weight="700">24</text>
<rect x="136.0" y="225.0" width="28.0" height="75.0" fill="#FF781F" stroke="#0D1117" stroke-width="2"/>
<text x="150.0" y="219.0" font-size="12" fill="#F8FAFC" text-anchor="middle" font-weight="700">15</text>
<rect x="164.0" y="255.0" width="28.0" height="45.0" fill="#FF781F" stroke="#0D1117" stroke-width="2"/>
<text x="178.0" y="249.0" font-size="12" fill="#F8FAFC" text-anchor="middle" font-weight="700">9</text>
<rect x="192.0" y="275.0" width="28.0" height="25.0" fill="#FF781F" stroke="#0D1117" stroke-width="2"/>
<text x="206.0" y="269.0" font-size="12" fill="#F8FAFC" text-anchor="middle" font-weight="700">5</text>
<rect x="220.0" y="285.0" width="28.0" height="15.0" fill="#FF781F" stroke="#0D1117" stroke-width="2"/>
<text x="234.0" y="279.0" font-size="12" fill="#F8FAFC" text-anchor="middle" font-weight="700">3</text>
<rect x="248.0" y="290.0" width="28.0" height="10.0" fill="#FF781F" stroke="#0D1117" stroke-width="2"/>
<text x="262.0" y="284.0" font-size="12" fill="#F8FAFC" text-anchor="middle" font-weight="700">2</text>
<rect x="276.0" y="295.0" width="28.0" height="5.0" fill="#FF781F" stroke="#0D1117" stroke-width="2"/>
<text x="290.0" y="289.0" font-size="12" fill="#F8FAFC" text-anchor="middle" font-weight="700">1</text>
<rect x="304.0" y="295.0" width="28.0" height="5.0" fill="#FF781F" stroke="#0D1117" stroke-width="2"/>
<text x="318.0" y="289.0" font-size="12" fill="#F8FAFC" text-anchor="middle" font-weight="700">1</text>
<rect x="332.0" y="300.0" width="28.0" height="0.0" fill="#FF781F" stroke="#0D1117" stroke-width="2"/>
<text x="346.0" y="294.0" font-size="12" fill="#F8FAFC" text-anchor="middle" font-weight="700">0</text>
<text x="80.0" y="318.0" font-size="12" fill="#CBD5E1" text-anchor="middle" font-weight="400">0</text>
<text x="108.0" y="318.0" font-size="12" fill="#CBD5E1" text-anchor="middle" font-weight="400">5</text>
<text x="136.0" y="318.0" font-size="12" fill="#CBD5E1" text-anchor="middle" font-weight="400">10</text>
<text x="164.0" y="318.0" font-size="12" fill="#CBD5E1" text-anchor="middle" font-weight="400">15</text>
<text x="192.0" y="318.0" font-size="12" fill="#CBD5E1" text-anchor="middle" font-weight="400">20</text>
<text x="220.0" y="318.0" font-size="12" fill="#CBD5E1" text-anchor="middle" font-weight="400">25</text>
<text x="248.0" y="318.0" font-size="12" fill="#CBD5E1" text-anchor="middle" font-weight="400">30</text>
<text x="276.0" y="318.0" font-size="12" fill="#CBD5E1" text-anchor="middle" font-weight="400">35</text>
<text x="304.0" y="318.0" font-size="12" fill="#CBD5E1" text-anchor="middle" font-weight="400">40</text>
<text x="332.0" y="318.0" font-size="12" fill="#CBD5E1" text-anchor="middle" font-weight="400">45</text>
<text x="360.0" y="318.0" font-size="12" fill="#CBD5E1" text-anchor="middle" font-weight="400">50</text>
<text x="220.0" y="338.0" font-size="12" fill="#CBD5E1" text-anchor="middle" font-weight="400"></text>
<text x="570.0" y="76.0" font-size="13" fill="#CBD5E1" text-anchor="middle" font-weight="400">Médias de amostras n = 2</text>
<line x1="440" y1="300.0" x2="720" y2="300.0" stroke="#30363D"/>
<text x="432.0" y="304.0" font-size="11" fill="#CBD5E1" text-anchor="end" font-weight="400">0</text>
<line x1="440" y1="250.0" x2="720" y2="250.0" stroke="#30363D"/>
<text x="432.0" y="254.0" font-size="11" fill="#CBD5E1" text-anchor="end" font-weight="400">10</text>
<line x1="440" y1="200.0" x2="720" y2="200.0" stroke="#30363D"/>
<text x="432.0" y="204.0" font-size="11" fill="#CBD5E1" text-anchor="end" font-weight="400">20</text>
<line x1="440" y1="150.0" x2="720" y2="150.0" stroke="#30363D"/>
<text x="432.0" y="154.0" font-size="11" fill="#CBD5E1" text-anchor="end" font-weight="400">30</text>
<line x1="440" y1="100.0" x2="720" y2="100.0" stroke="#30363D"/>
<text x="432.0" y="104.0" font-size="11" fill="#CBD5E1" text-anchor="end" font-weight="400">40</text>
<line x1="440" y1="300" x2="720" y2="300" stroke="#CBD5E1"/>
<text x="402" y="200.0" font-size="12" fill="#CBD5E1" text-anchor="middle" transform="rotate(-90 402 200.0)">%</text>
<rect x="440.0" y="245.0" width="28.0" height="55.0" fill="#FF781F" stroke="#0D1117" stroke-width="2"/>
<text x="454.0" y="239.0" font-size="12" fill="#F8FAFC" text-anchor="middle" font-weight="700">11</text>
<rect x="468.0" y="190.0" width="28.0" height="110.0" fill="#FF781F" stroke="#0D1117" stroke-width="2"/>
<text x="482.0" y="184.0" font-size="12" fill="#F8FAFC" text-anchor="middle" font-weight="700">22</text>
<rect x="496.0" y="200.0" width="28.0" height="100.0" fill="#FF781F" stroke="#0D1117" stroke-width="2"/>
<text x="510.0" y="194.0" font-size="12" fill="#F8FAFC" text-anchor="middle" font-weight="700">20</text>
<rect x="524.0" y="220.0" width="28.0" height="80.0" fill="#FF781F" stroke="#0D1117" stroke-width="2"/>
<text x="538.0" y="214.0" font-size="12" fill="#F8FAFC" text-anchor="middle" font-weight="700">16</text>
<rect x="552.0" y="245.0" width="28.0" height="55.0" fill="#FF781F" stroke="#0D1117" stroke-width="2"/>
<text x="566.0" y="239.0" font-size="12" fill="#F8FAFC" text-anchor="middle" font-weight="700">11</text>
<rect x="580.0" y="260.0" width="28.0" height="40.0" fill="#FF781F" stroke="#0D1117" stroke-width="2"/>
<text x="594.0" y="254.0" font-size="12" fill="#F8FAFC" text-anchor="middle" font-weight="700">8</text>
<rect x="608.0" y="280.0" width="28.0" height="20.0" fill="#FF781F" stroke="#0D1117" stroke-width="2"/>
<text x="622.0" y="274.0" font-size="12" fill="#F8FAFC" text-anchor="middle" font-weight="700">4</text>
<rect x="636.0" y="285.0" width="28.0" height="15.0" fill="#FF781F" stroke="#0D1117" stroke-width="2"/>
<text x="650.0" y="279.0" font-size="12" fill="#F8FAFC" text-anchor="middle" font-weight="700">3</text>
<rect x="664.0" y="290.0" width="28.0" height="10.0" fill="#FF781F" stroke="#0D1117" stroke-width="2"/>
<text x="678.0" y="284.0" font-size="12" fill="#F8FAFC" text-anchor="middle" font-weight="700">2</text>
<rect x="692.0" y="295.0" width="28.0" height="5.0" fill="#FF781F" stroke="#0D1117" stroke-width="2"/>
<text x="706.0" y="289.0" font-size="12" fill="#F8FAFC" text-anchor="middle" font-weight="700">1</text>
<text x="440.0" y="318.0" font-size="12" fill="#CBD5E1" text-anchor="middle" font-weight="400">0</text>
<text x="468.0" y="318.0" font-size="12" fill="#CBD5E1" text-anchor="middle" font-weight="400">3</text>
<text x="496.0" y="318.0" font-size="12" fill="#CBD5E1" text-anchor="middle" font-weight="400">6</text>
<text x="524.0" y="318.0" font-size="12" fill="#CBD5E1" text-anchor="middle" font-weight="400">9</text>
<text x="552.0" y="318.0" font-size="12" fill="#CBD5E1" text-anchor="middle" font-weight="400">12</text>
<text x="580.0" y="318.0" font-size="12" fill="#CBD5E1" text-anchor="middle" font-weight="400">15</text>
<text x="608.0" y="318.0" font-size="12" fill="#CBD5E1" text-anchor="middle" font-weight="400">18</text>
<text x="636.0" y="318.0" font-size="12" fill="#CBD5E1" text-anchor="middle" font-weight="400">21</text>
<text x="664.0" y="318.0" font-size="12" fill="#CBD5E1" text-anchor="middle" font-weight="400">24</text>
<text x="692.0" y="318.0" font-size="12" fill="#CBD5E1" text-anchor="middle" font-weight="400">27</text>
<text x="720.0" y="318.0" font-size="12" fill="#CBD5E1" text-anchor="middle" font-weight="400">30</text>
<text x="580.0" y="338.0" font-size="12" fill="#CBD5E1" text-anchor="middle" font-weight="400"></text>
<text x="930.0" y="76.0" font-size="13" fill="#CBD5E1" text-anchor="middle" font-weight="400">Médias de amostras n = 30</text>
<line x1="800" y1="300.0" x2="1080" y2="300.0" stroke="#30363D"/>
<text x="792.0" y="304.0" font-size="11" fill="#CBD5E1" text-anchor="end" font-weight="400">0</text>
<line x1="800" y1="250.0" x2="1080" y2="250.0" stroke="#30363D"/>
<text x="792.0" y="254.0" font-size="11" fill="#CBD5E1" text-anchor="end" font-weight="400">10</text>
<line x1="800" y1="200.0" x2="1080" y2="200.0" stroke="#30363D"/>
<text x="792.0" y="204.0" font-size="11" fill="#CBD5E1" text-anchor="end" font-weight="400">20</text>
<line x1="800" y1="150.0" x2="1080" y2="150.0" stroke="#30363D"/>
<text x="792.0" y="154.0" font-size="11" fill="#CBD5E1" text-anchor="end" font-weight="400">30</text>
<line x1="800" y1="100.0" x2="1080" y2="100.0" stroke="#30363D"/>
<text x="792.0" y="104.0" font-size="11" fill="#CBD5E1" text-anchor="end" font-weight="400">40</text>
<line x1="800" y1="300" x2="1080" y2="300" stroke="#CBD5E1"/>
<text x="762" y="200.0" font-size="12" fill="#CBD5E1" text-anchor="middle" transform="rotate(-90 762 200.0)">%</text>
<rect x="800.0" y="300.0" width="28.0" height="0.0" fill="#FF781F" stroke="#0D1117" stroke-width="2"/>
<text x="814.0" y="294.0" font-size="12" fill="#F8FAFC" text-anchor="middle" font-weight="700">0</text>
<rect x="828.0" y="285.0" width="28.0" height="15.0" fill="#FF781F" stroke="#0D1117" stroke-width="2"/>
<text x="842.0" y="279.0" font-size="12" fill="#F8FAFC" text-anchor="middle" font-weight="700">3</text>
<rect x="856.0" y="255.0" width="28.0" height="45.0" fill="#FF781F" stroke="#0D1117" stroke-width="2"/>
<text x="870.0" y="249.0" font-size="12" fill="#F8FAFC" text-anchor="middle" font-weight="700">9</text>
<rect x="884.0" y="215.0" width="28.0" height="85.0" fill="#FF781F" stroke="#0D1117" stroke-width="2"/>
<text x="898.0" y="209.0" font-size="12" fill="#F8FAFC" text-anchor="middle" font-weight="700">17</text>
<rect x="912.0" y="190.0" width="28.0" height="110.0" fill="#FF781F" stroke="#0D1117" stroke-width="2"/>
<text x="926.0" y="184.0" font-size="12" fill="#F8FAFC" text-anchor="middle" font-weight="700">22</text>
<rect x="940.0" y="200.0" width="28.0" height="100.0" fill="#FF781F" stroke="#0D1117" stroke-width="2"/>
<text x="954.0" y="194.0" font-size="12" fill="#F8FAFC" text-anchor="middle" font-weight="700">20</text>
<rect x="968.0" y="235.0" width="28.0" height="65.0" fill="#FF781F" stroke="#0D1117" stroke-width="2"/>
<text x="982.0" y="229.0" font-size="12" fill="#F8FAFC" text-anchor="middle" font-weight="700">13</text>
<rect x="996.0" y="255.0" width="28.0" height="45.0" fill="#FF781F" stroke="#0D1117" stroke-width="2"/>
<text x="1010.0" y="249.0" font-size="12" fill="#F8FAFC" text-anchor="middle" font-weight="700">9</text>
<rect x="1024.0" y="280.0" width="28.0" height="20.0" fill="#FF781F" stroke="#0D1117" stroke-width="2"/>
<text x="1038.0" y="274.0" font-size="12" fill="#F8FAFC" text-anchor="middle" font-weight="700">4</text>
<rect x="1052.0" y="290.0" width="28.0" height="10.0" fill="#FF781F" stroke="#0D1117" stroke-width="2"/>
<text x="1066.0" y="284.0" font-size="12" fill="#F8FAFC" text-anchor="middle" font-weight="700">2</text>
<text x="800.0" y="318.0" font-size="12" fill="#CBD5E1" text-anchor="middle" font-weight="400">5</text>
<text x="828.0" y="318.0" font-size="12" fill="#CBD5E1" text-anchor="middle" font-weight="400">6</text>
<text x="856.0" y="318.0" font-size="12" fill="#CBD5E1" text-anchor="middle" font-weight="400">7</text>
<text x="884.0" y="318.0" font-size="12" fill="#CBD5E1" text-anchor="middle" font-weight="400">8</text>
<text x="912.0" y="318.0" font-size="12" fill="#CBD5E1" text-anchor="middle" font-weight="400">9</text>
<text x="940.0" y="318.0" font-size="12" fill="#CBD5E1" text-anchor="middle" font-weight="400">10</text>
<text x="968.0" y="318.0" font-size="12" fill="#CBD5E1" text-anchor="middle" font-weight="400">11</text>
<text x="996.0" y="318.0" font-size="12" fill="#CBD5E1" text-anchor="middle" font-weight="400">12</text>
<text x="1024.0" y="318.0" font-size="12" fill="#CBD5E1" text-anchor="middle" font-weight="400">13</text>
<text x="1052.0" y="318.0" font-size="12" fill="#CBD5E1" text-anchor="middle" font-weight="400">14</text>
<text x="1080.0" y="318.0" font-size="12" fill="#CBD5E1" text-anchor="middle" font-weight="400">15</text>
<text x="940.0" y="338.0" font-size="12" fill="#CBD5E1" text-anchor="middle" font-weight="400"></text>
</g>
</svg>
