<svg xmlns="http://www.w3.org/2000/svg" viewBox="0 0 760 372" width="760" height="372" role="img" aria-labelledby="t d">
<title id="t">Probabilidades na distribuição normal das alturas</title>
<desc id="d">Curva normal de média 175 e desvio padrão 10. A área à esquerda de 164, sombreada em vermelho, vale aproximadamente 0.1357; a área entre 164 e 174, em laranja, vale aproximadamente 0.3245; a área à direita de 164 vale aproximadamente 0.8643.</desc>
<defs><linearGradient id="g" x1="0" y1="0" x2="1" y2="0"><stop offset="0" stop-color="#FF781F"/><stop offset=".5" stop-color="#FF4500"/><stop offset="1" stop-color="#E60000"/></linearGradient></defs>
<rect width="760" height="372" rx="18" fill="#0D1117"/>
<rect width="760" height="6" rx="3" fill="url(#g)"/>
<g font-family="Fira Code, Consolas, monospace">
<text x="380.0" y="40.0" font-size="17" fill="#F8FAFC" text-anchor="middle" font-weight="700">Alturas ~ N(μ = 175 cm, σ = 10 cm)</text>
<polygon points="60.0,300 60.0,299.9 62.9,299.9 65.8,299.9 68.7,299.9 71.6,299.9 74.5,299.9 77.4,299.8 80.3,299.8 83.2,299.8 86.1,299.7 89.0,299.7 91.9,299.7 94.8,299.6 97.7,299.6 100.6,299.5 103.5,299.4 106.4,299.4 109.3,299.3 112.2,299.2 115.1,299.1 118.0,299.0 120.9,298.8 123.8,298.7 126.7,298.5 129.6,298.4 132.5,298.2 135.4,297.9 138.3,297.7 141.2,297.4 144.1,297.2 147.0,296.8 149.9,296.5 152.8,296.1 155.7,295.7 158.6,295.2 161.5,294.7 164.4,294.2 167.3,293.6 170.2,292.9 173.1,292.2 176.0,291.5 178.9,290.7 181.8,289.8 184.7,288.8 187.6,287.8 190.5,286.7 193.4,285.5 196.3,284.2 199.2,282.9 202.1,281.4 205.0,279.9 207.9,278.2 210.8,276.5 213.7,274.6 216.6,272.7 219.5,270.6 222.4,268.4 225.3,266.1 228.2,263.6 231.1,261.1 234.0,258.4 236.9,255.6 239.8,252.6 242.7,249.6 245.6,246.4 248.5,243.0 251.4,239.6 254.3,236.0 257.2,232.3 260.1,228.4 263.0,224.5 265.9,220.4 268.8,216.3 271.7,212.0 274.6,207.6 277.5,203.2 280.4,198.6 283.3,194.0 286.2,189.4 289.1,184.6 292.0,179.9 292.0,300" fill="#E60000" fill-opacity=".85"/>
<polygon points="292.0,300 292.0,179.9 293.0,178.2 294.0,176.6 295.0,174.9 296.0,173.2 297.0,171.6 298.0,169.9 299.0,168.2 300.0,166.6 301.0,164.9 302.0,163.2 303.0,161.6 304.0,159.9 305.0,158.2 306.0,156.6 307.0,154.9 308.0,153.3 309.0,151.6 310.0,150.0 311.0,148.3 312.0,146.7 313.0,145.1 314.0,143.5 315.0,141.8 316.0,140.2 317.0,138.7 318.0,137.1 319.0,135.5 320.0,133.9 321.0,132.4 322.0,130.8 323.0,129.3 324.0,127.8 325.0,126.3 326.0,124.8 327.0,123.3 328.0,121.9 329.0,120.5 330.0,119.0 331.0,117.6 332.0,116.2 333.0,114.9 334.0,113.5 335.0,112.2 336.0,110.9 337.0,109.6 338.0,108.3 339.0,107.1 340.0,105.9 341.0,104.6 342.0,103.5 343.0,102.3 344.0,101.2 345.0,100.1 346.0,99.0 347.0,97.9 348.0,96.9 349.0,95.9 350.0,94.9 351.0,94.0 352.0,93.1 353.0,92.2 354.0,91.3 355.0,90.5 356.0,89.7 357.0,88.9 358.0,88.2 359.0,87.5 360.0,86.8 361.0,86.1 362.0,85.5 363.0,84.9 364.0,84.4 365.0,83.8 366.0,83.3 367.0,82.9 368.0,82.5 369.0,82.1 370.0,81.7 371.0,81.4 372.0,81.1 372.0,300" fill="#FF781F" fill-opacity=".85"/>
<polyline points="60.0,299.9 63.2,299.9 66.4,299.9 69.6,299.9 72.8,299.9 76.0,299.8 79.2,299.8 82.4,299.8 85.6,299.7 88.8,299.7 92.0,299.7 95.2,299.6 98.4,299.6 101.6,299.5 104.8,299.4 108.0,299.3 111.2,299.2 114.4,299.1 117.6,299.0 120.8,298.8 124.0,298.7 127.2,298.5 130.4,298.3 133.6,298.1 136.8,297.8 140.0,297.6 143.2,297.2 146.4,296.9 149.6,296.5 152.8,296.1 156.0,295.6 159.2,295.1 162.4,294.6 165.6,293.9 168.8,293.3 172.0,292.5 175.2,291.7 178.4,290.8 181.6,289.8 184.8,288.8 188.0,287.7 191.2,286.4 194.4,285.1 197.6,283.6 200.8,282.1 204.0,280.4 207.2,278.7 210.4,276.7 213.6,274.7 216.8,272.5 220.0,270.2 223.2,267.8 226.4,265.2 229.6,262.4 232.8,259.5 236.0,256.5 239.2,253.2 242.4,249.9 245.6,246.4 248.8,242.7 252.0,238.8 255.2,234.8 258.4,230.7 261.6,226.4 264.8,222.0 268.0,217.4 271.2,212.7 274.4,207.9 277.6,203.0 280.8,198.0 284.0,192.9 287.2,187.7 290.4,182.5 293.6,177.2 296.8,171.9 300.0,166.6 303.2,161.2 306.4,155.9 309.6,150.6 312.8,145.4 316.0,140.2 319.2,135.2 322.4,130.2 325.6,125.4 328.8,120.7 332.0,116.2 335.2,111.9 338.4,107.8 341.6,103.9 344.8,100.3 348.0,96.9 351.2,93.8 354.4,91.0 357.6,88.5 360.8,86.2 364.0,84.4 367.2,82.8 370.4,81.6 373.6,80.7 376.8,80.2 380.0,80.0 383.2,80.2 386.4,80.7 389.6,81.6 392.8,82.8 396.0,84.4 399.2,86.2 402.4,88.5 405.6,91.0 408.8,93.8 412.0,96.9 415.2,100.3 418.4,103.9 421.6,107.8 424.8,111.9 428.0,116.2 431.2,120.7 434.4,125.4 437.6,130.2 440.8,135.2 444.0,140.2 447.2,145.4 450.4,150.6 453.6,155.9 456.8,161.2 460.0,166.6 463.2,171.9 466.4,177.2 469.6,182.5 472.8,187.7 476.0,192.9 479.2,198.0 482.4,203.0 485.6,207.9 488.8,212.7 492.0,217.4 495.2,222.0 498.4,226.4 501.6,230.7 504.8,234.8 508.0,238.8 511.2,242.7 514.4,246.4 517.6,249.9 520.8,253.2 524.0,256.5 527.2,259.5 530.4,262.4 533.6,265.2 536.8,267.8 540.0,270.2 543.2,272.5 546.4,274.7 549.6,276.7 552.8,278.7 556.0,280.4 559.2,282.1 562.4,283.6 565.6,285.1 568.8,286.4 572.0,287.7 575.2,288.8 578.4,289.8 581.6,290.8 584.8,291.7 588.0,292.5 591.2,293.3 594.4,293.9 597.6,294.6 600.8,295.1 604.0,295.6 607.2,296.1 610.4,296.5 613.6,296.9 616.8,297.2 620.0,297.6 623.2,297.8 626.4,298.1 629.6,298.3 632.8,298.5 636.0,298.7 639.2,298.8 642.4,299.0 645.6,299.1 648.8,299.2 652.0,299.3 655.2,299.4 658.4,299.5 661.6,299.6 664.8,299.6 668.0,299.7 671.2,299.7 674.4,299.7 677.6,299.8 680.8,299.8 684.0,299.8 687.2,299.9 690.4,299.9 693.6,299.9 696.8,299.9 700.0,299.9" fill="none" stroke="#F8FAFC" stroke-width="2"/>
<line x1="60" y1="300" x2="700" y2="300" stroke="#CBD5E1"/>
<line x1="140.0" y1="300" x2="140.0" y2="305" stroke="#CBD5E1"/>
<text x="140.0" y="320.0" font-size="12" fill="#CBD5E1" text-anchor="middle" font-weight="400">145</text>
<line x1="220.0" y1="300" x2="220.0" y2="305" stroke="#CBD5E1"/>
<text x="220.0" y="320.0" font-size="12" fill="#CBD5E1" text-anchor="middle" font-weight="400">155</text>
<line x1="292.0" y1="300" x2="292.0" y2="305" stroke="#CBD5E1"/>
<text x="292.0" y="320.0" font-size="12" fill="#CBD5E1" text-anchor="middle" font-weight="400">164</text>
<line x1="372.0" y1="300" x2="372.0" y2="305" stroke="#CBD5E1"/>
<text x="372.0" y="320.0" font-size="12" fill="#CBD5E1" text-anchor="middle" font-weight="400">174</text>
<line x1="460.0" y1="300" x2="460.0" y2="305" stroke="#CBD5E1"/>
<text x="460.0" y="320.0" font-size="12" fill="#CBD5E1" text-anchor="middle" font-weight="400">185</text>
<line x1="540.0" y1="300" x2="540.0" y2="305" stroke="#CBD5E1"/>
<text x="540.0" y="320.0" font-size="12" fill="#CBD5E1" text-anchor="middle" font-weight="400">195</text>
<line x1="620.0" y1="300" x2="620.0" y2="305" stroke="#CBD5E1"/>
<text x="620.0" y="320.0" font-size="12" fill="#CBD5E1" text-anchor="middle" font-weight="400">205</text>
<text x="148.0" y="196.0" font-size="13" fill="#E60000" text-anchor="middle" font-weight="400">P(X ≤ 164)</text>
<text x="148.0" y="214.0" font-size="13" fill="#E60000" text-anchor="middle" font-weight="700">≈ 0,1357</text>
<text x="332.0" y="170.0" font-size="13" fill="#F8FAFC" text-anchor="middle" font-weight="400">P(164 ≤ X ≤ 174)</text>
<text x="332.0" y="188.0" font-size="13" fill="#F8FAFC" text-anchor="middle" font-weight="700">≈ 0,3245</text>
<text x="580.0" y="140.0" font-size="12" fill="#CBD5E1" text-anchor="middle" font-weight="400">P(X ≥ 164) = 1 − P(X ≤ 164)</text>
<text x="580.0" y="158.0" font-size="12" fill="#CBD5E1" text-anchor="middle" font-weight="400">≈ 0,8643</text>
<text x="380.0" y="350.0" font-size="13" fill="#CBD5E1" text-anchor="middle" font-weight="400">área total sob a curva = 1 · probabilidade = área</text>
</g>
</svg>
